<svg width="18" height="17" viewBox="0 0 18 17" fill="none" xmlns="http://www.w3.org/2000/svg">
<g id="ArrowCircleRight">
<path id="Vector" d="M9 1.59375C7.55373 1.59375 6.13993 1.99879 4.9374 2.75766C3.73486 3.51653 2.7976 4.59514 2.24413 5.85709C1.69067 7.11904 1.54586 8.50766 1.82801 9.84734C2.11017 11.187 2.80661 12.4176 3.82928 13.3835C4.85196 14.3493 6.15492 15.0071 7.57341 15.2735C8.99189 15.54 10.4622 15.4033 11.7984 14.8805C13.1346 14.3578 14.2766 13.4726 15.0801 12.3369C15.8836 11.2012 16.3125 9.86593 16.3125 8.5C16.3105 6.66894 15.5394 4.91343 14.1685 3.61868C12.7975 2.32393 10.9388 1.59568 9 1.59375ZM9 14.3438C7.77623 14.3438 6.57994 14.001 5.56241 13.3589C4.54488 12.7168 3.75182 11.8041 3.2835 10.7363C2.81518 9.6685 2.69265 8.49352 2.93139 7.35994C3.17014 6.22636 3.75944 5.18511 4.62478 4.36784C5.49012 3.55058 6.59262 2.99402 7.79288 2.76854C8.99314 2.54305 10.2372 2.65878 11.3679 3.10108C12.4985 3.54338 13.4648 4.29239 14.1447 5.25339C14.8246 6.21439 15.1875 7.34422 15.1875 8.5C15.1856 10.0493 14.5331 11.5347 13.3732 12.6302C12.2132 13.7257 10.6405 14.342 9 14.3438ZM12.2105 8.12414C12.2628 8.17348 12.3043 8.23207 12.3326 8.29656C12.3609 8.36106 12.3754 8.43019 12.3754 8.5C12.3754 8.56981 12.3609 8.63894 12.3326 8.70344C12.3043 8.76793 12.2628 8.82652 12.2105 8.87586L9.96047 11.0009C9.85492 11.1005 9.71177 11.1565 9.5625 11.1565C9.41324 11.1565 9.27008 11.1005 9.16453 11.0009C9.05899 10.9012 8.99969 10.766 8.99969 10.625C8.99969 10.484 9.05899 10.3488 9.16453 10.2491L10.4548 9.03125H6.1875C6.03832 9.03125 5.89525 8.97528 5.78976 8.87565C5.68427 8.77602 5.625 8.6409 5.625 8.5C5.625 8.3591 5.68427 8.22398 5.78976 8.12435C5.89525 8.02472 6.03832 7.96875 6.1875 7.96875H10.4548L9.16453 6.75086C9.05899 6.65118 8.99969 6.51597 8.99969 6.375C8.99969 6.23403 9.05899 6.09882 9.16453 5.99914C9.27008 5.89946 9.41324 5.84345 9.5625 5.84345C9.71177 5.84345 9.85492 5.89946 9.96047 5.99914L12.2105 8.12414Z" fill="#9B51E0"/>
</g>
</svg>
