<svg width="174" height="54" viewBox="0 0 174 54" fill="none" xmlns="http://www.w3.org/2000/svg">
<g id="Frame" clip-path="url(#clip0_42_925)">
<g id="Layer 2">
<g id="Group">
<path id="Vector" d="M48.9538 9.72514C50.106 11.0982 52.1208 11.9072 53.2999 13.2832C52.4551 9.21471 49.3149 5.89242 45.6016 5.09842C47.4135 6.46256 47.8045 8.35802 48.9538 9.72514ZM4.32226 20.0383C6.88039 14.4713 10.6982 15.6503 12.3131 10.346C11.4176 11.9728 7.23859 12.6594 5.29536 16.8294C6.28339 14.3519 5.78789 10.5609 7.45948 8.51623C2.46261 12.2027 4.59091 18.1667 4.32226 20.0383ZM8.95496 33.3901C9.41464 35.5572 8.05946 38.6855 10.2086 41.6764C7.98782 39.1869 3.28348 38.5541 1.36712 34.7692C3.75511 44.0226 10.0236 42.1122 12.8265 44.1211C10.5101 40.7929 12.4056 38.581 8.95496 33.3901ZM8.23557 39.1959C6.86547 34.0289 9.30718 32.2379 7.44157 27.2828C7.24754 30.0768 5.38491 31.4379 6.64159 36.5363C4.42375 32.22 0.994 30.6081 0 27.641C0.0686547 35.7542 6.58786 36.9572 8.23557 39.1959ZM18.2472 47.8524C16.3279 45.1957 17.6502 43.6943 12.2474 38.8705C13.3877 40.6317 12.2116 42.8465 15.8473 46.2912C12.2892 44.2017 7.38187 45.0972 5.01477 42.2883C9.08032 50.0702 16.2234 46.8942 18.2472 47.8613V47.8524ZM44.342 46.2912C47.9777 42.8465 46.8016 40.6197 47.9418 38.8705C42.551 43.6943 43.8614 45.1957 41.942 47.8524C43.9658 46.8852 51.1089 50.0612 55.1715 42.2883C52.8074 45.1002 47.9001 44.2017 44.342 46.3002V46.2912ZM49.9806 41.6675C52.1208 38.6825 50.7746 35.5483 51.2343 33.3812C47.7836 38.572 49.6791 40.7839 47.3538 44.1271C50.1716 42.1182 56.4162 44.0226 58.8132 34.7751C56.8998 38.5541 52.2014 39.1869 49.9806 41.6764V41.6675ZM41.3659 48.2195C39.4405 47.7012 37.463 47.4008 35.4706 47.324C33.6375 47.28 31.8132 47.5902 30.0976 48.2374C28.382 47.5904 26.5577 47.2803 24.7246 47.324C22.7322 47.4008 20.7547 47.7012 18.8293 48.2195C15.5846 49.0822 12.7817 49.7508 10.337 48.518C12.6802 50.6075 15.4115 51.3388 19.3606 50.906C22.6441 50.5538 25.3037 48.909 28.4021 48.9329H28.5245C26.5763 49.9082 24.8397 51.2583 23.4142 52.9059L24.9067 53.1059C24.9067 53.1059 26.4798 49.9448 30.0976 49.121C33.7154 49.9448 35.2885 53.1059 35.2885 53.1059L36.781 52.9059C35.3527 51.2667 33.6164 49.9239 31.6707 48.9538H31.7931C34.8915 48.9299 37.5451 50.5747 40.8316 50.9269C44.7807 51.3537 47.515 50.6105 49.8582 48.5389C47.4135 49.7598 44.6106 49.0911 41.3659 48.2285V48.2195ZM7.66246 21.68C6.32518 24.2471 4.24763 24.8351 4.47748 30.1484C3.34915 25.4262 0.668637 23.677 0.701471 20.6651C-1.16116 28.5156 3.8178 29.4469 5.09537 32.7364C4.90732 28.0231 7.91618 27.0709 7.66246 21.68ZM9.53106 15.6205C9.0654 16.2712 8.74004 16.5488 7.49828 17.5727C5.63359 19.0511 4.35205 21.1415 3.88048 23.474C4.00884 20.5965 2.22978 16.4623 3.41184 13.4474C-1.16414 19.9099 3.67452 23.7814 3.84466 26.1217C5.03268 21.6173 7.76096 21.5815 9.53106 15.6205ZM56.3058 23.474C55.8338 21.1424 54.5536 19.0524 52.691 17.5727C51.4492 16.5488 51.1238 16.2712 50.6582 15.6205C52.4283 21.5905 55.1566 21.6173 56.3297 26.1217C56.4998 23.7814 61.3385 19.9099 56.7595 13.4474C57.9535 16.4623 56.1774 20.5965 56.3058 23.474ZM60.1863 27.653C59.1923 30.62 55.7625 32.2319 53.5447 36.5602C54.8013 31.4499 52.9477 30.0887 52.7447 27.3067C50.8791 32.2678 53.3417 34.0498 51.9507 39.2198C53.6014 36.9572 60.1206 35.7542 60.1892 27.641L60.1863 27.653ZM52.5357 21.68C52.282 27.0709 55.2939 28.0231 55.1028 32.7245C56.3834 29.441 61.3713 28.5037 59.4967 20.6532C59.5325 23.665 56.852 25.4292 55.7327 30.1215C55.9416 24.8351 53.8641 24.2471 52.5357 21.68ZM11.2415 9.74007C12.3966 8.36698 12.7877 6.47748 14.5966 5.11334C10.8833 5.90735 7.73111 9.22964 6.8983 13.2982C8.05946 11.9072 10.0773 11.0982 11.2295 9.72514L11.2415 9.74007ZM47.8881 10.3609C49.503 15.6653 53.3208 14.4862 55.8759 20.0532C55.6103 18.1816 57.7386 12.2176 52.7417 8.53115C54.4133 10.5788 53.9178 14.3668 54.9058 16.8443C52.9566 12.6594 48.7866 11.9728 47.8762 10.346L47.8881 10.3609ZM34.9243 13.3579C33.9453 12.9562 32.9192 12.6804 31.8707 12.537C31.8707 12.7609 31.8707 12.9907 31.8707 13.2176C32.8339 13.3589 33.7762 13.6176 34.6766 13.9877C34.7984 13.7954 34.8825 13.5817 34.9243 13.3579ZM34.1512 6.7909L34.3542 6.60882L33.9661 6.44465L32.9453 6.42375L32.6796 6.60882L32.0826 6.55807V6.70434C32.4345 6.72328 32.7852 6.76014 33.1333 6.81478L33.6318 6.77001L34.1512 6.7909ZM32.1722 28.8052C32.1722 28.632 31.9423 28.4619 31.602 28.3007H31.5394C31.5394 28.441 31.5394 29.1335 31.5185 29.4708C31.9393 29.2828 32.1722 29.0798 32.1722 28.8052ZM20.3457 15.8205C20.3672 15.6945 20.3961 15.5699 20.4322 15.4474C20.2951 15.4782 20.1548 15.4923 20.0143 15.4891L20.3457 15.8205ZM30.1155 45.8494C35.4412 45.8302 40.5571 43.7712 44.4112 40.0957C48.2653 36.4203 50.5646 31.4078 50.8364 26.0891C51.1082 20.7703 49.3318 15.5496 45.8725 11.5004C42.4131 7.45119 37.5338 4.88137 32.2378 4.31934C32.2378 4.35814 32.2378 4.39993 32.214 4.43874C32.1722 4.64171 32.1334 4.8238 32.1035 4.98499C36.6754 5.43427 40.9556 7.43581 44.2315 10.6565L41.9331 12.9549L42.0196 12.5489L41.7211 12.4176L41.3092 12.3937L41.3958 12.1281L41.1182 11.1878L40.5451 10.558L38.7541 9.61171L38.5988 9.77589L38.2735 9.87141C38.8856 10.7593 39.2163 11.8108 39.2227 12.8892C39.2227 13.0295 39.2227 13.1638 39.2227 13.2982L40.1182 14.4175L39.7003 14.5131L39.9779 14.931L39.1929 15.713L38.8764 15.116C38.7265 15.5301 38.526 15.9242 38.2795 16.2891L38.4556 16.4503L36.0347 18.8711C35.8885 18.7308 35.7362 18.5965 35.581 18.4682C35.3482 18.5756 35.1124 18.6741 34.8706 18.7667L35.0766 18.9279L34.9542 19.0502L34.6557 19.2084L34.5512 19.5069L34.3751 19.3308L33.8647 19.501L34.0049 19.7248L34.3572 19.6323L34.587 19.6502L34.6049 19.5249L34.781 19.4353L34.8348 19.3308L35.1512 19.2413H35.3989C35.4467 19.2831 35.4974 19.3278 35.5422 19.3726L34.5691 20.298L34.4975 20.1965L33.4945 20.3606L33.2706 20.5845L33.0527 20.6114L33.6736 20.0144L33.4527 19.9039L32.8707 20.68L33.0408 20.6621V20.9606L33.2527 21.0442L33.2945 21.3427L32.9453 21.2741L32.5811 21.3397L31.6856 20.889C31.6856 20.889 31.6379 23.2531 31.614 24.4411C33.7035 25.1396 35.8974 26.1485 35.8974 28.7992C35.9055 29.354 35.7728 29.9018 35.5118 30.3914C35.2508 30.881 34.87 31.2965 34.4049 31.5991L34.3602 31.629L34.2945 31.6737C33.4527 32.2289 32.3722 32.5274 31.4349 32.82L31.408 34.6766C32.9005 35.4169 34.7064 36.4945 34.5393 39.578C34.5184 40.3362 34.2229 40.5451 33.9691 40.6138C33.0877 40.8336 32.1888 40.9764 31.2826 41.0406C31.2826 41.2794 31.2826 41.5063 31.2826 41.7182C35.1728 41.4506 38.8463 39.8283 41.6644 37.1333L44.0823 39.5511C40.3447 43.1529 35.3593 45.1701 30.1687 45.1807C24.9781 45.1912 19.9845 43.1944 16.2323 39.6078L18.6502 37.19C21.4388 39.832 25.0546 41.4296 28.8857 41.7122C28.8857 41.5033 28.8857 41.2764 28.8857 41.0347C25.2314 40.7562 21.7836 39.2314 19.1188 36.7154L19.7636 36.0676L20.6591 36.1691L21.1307 35.6617L22.3665 35.7035L22.5486 35.2766L22.5038 35.0945C24.3313 36.4956 26.5094 37.3662 28.7991 37.6109C28.7991 37.3482 28.7991 37.1184 28.7991 36.9303C26.2639 36.646 23.8868 35.5558 22.0173 33.8199L24.4381 31.3991C25.0282 31.9259 25.6881 32.3689 26.3992 32.7155C26.4486 32.4925 26.5311 32.2782 26.644 32.0797C26.0187 31.7713 25.4375 31.3808 24.9157 30.9185L27.3425 28.4947C27.7309 28.8055 28.1688 29.0487 28.6379 29.2141C28.6379 28.9753 28.6379 28.7216 28.6379 28.4858C28.3525 28.3616 28.0837 28.2022 27.838 28.0112L28.5215 27.3276C28.2827 27.256 28.038 27.1784 27.7992 27.0948L27.3395 27.5545C27.1068 27.2956 26.9119 27.0051 26.7604 26.6918C26.3455 26.512 25.9462 26.2984 25.5664 26.053C24.8601 25.6275 24.2786 25.0231 23.8808 24.3008C23.483 23.5786 23.2829 22.7641 23.3008 21.9397C23.26 20.8139 23.6055 19.7079 24.2799 18.8055L21.868 16.3936C23.6422 14.6942 25.8984 13.5849 28.3275 13.2176C28.3275 12.9847 28.3275 12.7549 28.3126 12.537C25.7081 12.9142 23.2873 14.098 21.3904 15.922L20.9815 15.522C20.8889 15.6862 20.7815 15.8921 20.6561 16.1518L20.9128 16.4115C18.764 18.6923 17.5441 21.6931 17.492 24.8262H14.0682C14.1231 20.7792 15.7091 16.9033 18.5069 13.9787L19.5934 15.0683C19.6451 15.0712 19.697 15.0712 19.7487 15.0683C19.9644 15.0499 20.1744 14.989 20.3666 14.8892L18.9845 13.5071C19.719 12.7988 20.5185 12.1612 21.3725 11.6027C21.4193 11.4323 21.4761 11.2649 21.5426 11.1012C21.7039 10.8581 21.8783 10.6239 22.065 10.3998C20.768 11.113 19.5715 11.9953 18.5069 13.0236L16.0891 10.6057C19.3303 7.43631 23.5494 5.45824 28.0589 4.99394C28.041 4.91036 28.029 4.84469 28.029 4.84469C27.9992 4.68649 27.9633 4.51037 27.9305 4.32531C22.6297 4.88811 17.7464 7.46211 14.2864 11.5172C10.8264 15.5724 9.05301 20.7999 9.33151 26.1232C9.61002 31.4466 11.9192 36.4605 15.7835 40.1325C19.6477 43.8044 24.7729 45.8548 30.1036 45.8614L30.1155 45.8494ZM44.7091 11.143C48.2363 14.8308 50.2268 19.7234 50.2761 24.8262H46.8404C46.8099 22.2855 46.1972 19.7857 45.0494 17.5189L45.0792 17.4592L45.3151 17.5846L45.3718 17.4025L44.7748 16.3309L44.0494 15.328L43.1898 14.6265C42.8913 14.2623 42.5928 13.9101 42.2734 13.5698L44.7091 11.143ZM40.3361 15.522L41.157 15.5578L41.354 15.7936L41.2555 16.1429L42.3868 16.8593L42.6107 16.8324L44.0733 18.504L44.6703 18.295C45.6249 20.3418 46.1336 22.568 46.1628 24.8262H42.742C42.7273 23.9497 42.6203 23.0773 42.4226 22.2233L42.5808 22.0113L42.7927 20.9397L42.6316 19.7875L42.2196 18.4622L41.2644 17.0652L41.4973 17.1876L41.6137 17.0712L40.8465 16.5518L40.7958 16.7219L41.5629 17.8174L41.9958 18.7129L42.2943 19.6084L42.3928 20.2054L42.551 21.2144L42.2525 21.2352C42.2525 21.2352 41.9211 20.6174 41.8196 20.3636L41.9719 20.1338L41.6734 19.7159V19.298L41.4644 19.0353L41.2047 19.0681C41.1122 18.895 41.0137 18.7249 40.9062 18.5577L41.0913 18.6502L41.1391 18.6025L41.0406 18.3876L41.2644 18.2622L41.1629 18.1368L40.8316 18.2622L40.954 17.7428L40.757 17.6294L40.5809 18.0443C40.2084 17.4849 39.7922 16.9559 39.3361 16.4623L40.3361 15.522ZM39.6496 23.5426L40.2645 23.2083L40.8913 23.1128L41.0286 22.8143L41.3779 22.6054L41.5122 22.3069L41.6196 21.8024C41.6704 21.9785 41.7152 22.1606 41.757 22.3427L41.4256 23.3307V23.665L41.9062 23.0233C42.0093 23.6149 42.0662 24.2137 42.0764 24.8142H39.0914L39.0227 24.5546L39.372 24.2769L39.4406 24.1098L39.5928 23.9964L39.9988 23.9546L40.0406 23.7755L39.6496 23.5426ZM35.5422 21.1935L35.8407 21.1218V21.0502L35.5422 20.8442L35.6467 20.1995L36.0138 19.8323C36.2433 20.094 36.4557 20.3702 36.6496 20.6591L36.5213 21.0561L36.187 20.8173L35.9332 20.886L36.0586 21.1218H36.184L36.0437 21.4711L35.9482 21.3308L35.5422 21.1935ZM36.8526 32.5573L36.1124 32.3483L35.8915 32.4289L35.4736 32.1095L35.0795 31.9693C35.2736 31.829 35.4616 31.6708 35.6437 31.5275L36.2407 31.9573L36.7064 32.2021L36.9362 32.4319L36.8526 32.5573ZM36.4765 19.3577L38.8973 16.9369C39.4633 17.5539 39.9635 18.2282 40.3898 18.9487L40.0913 19.0323L40.1063 19.5726L41.0018 20.1457C41.2261 20.6414 41.4156 21.152 41.5689 21.674L41.4107 21.9069L41.0824 22.1158L41.0018 22.6173L40.7779 22.7427L40.5898 22.9636L40.4018 22.8949H40.0675L40.2615 22.6322L40.4018 21.9487L40.6227 21.8113L39.9988 21.1696L39.5122 21.3338L39.4018 21.7905L39.1033 22.1218L38.7839 21.8591L38.6705 21.5785L38.8526 21.4651L38.9541 21.6502L39.1033 21.5934L39.0376 21.2949H38.8257L38.8108 21.4203L38.6705 21.4472L37.9093 20.5547L37.6526 20.3606L37.7511 20.2532L37.978 20.1756L37.769 20.092C37.769 20.092 37.5034 20.1517 37.4705 20.1517L37.6228 20.3427H37.2407C37.0111 19.9956 36.7557 19.6663 36.4765 19.3577ZM37.7093 32.2379L37.381 31.9096L37.6317 31.5842L37.9481 30.9394L37.8257 30.7603L38.0347 30.2827L38.0108 29.8529L37.8854 29.4081L37.5869 29.3037L37.4765 29.5544L37.2974 29.5066C37.5728 29.1118 37.8126 28.6933 38.0138 28.2559L38.3123 28.1246L38.4854 27.8918L38.569 27.9873L38.7779 27.7365L38.6108 27.5276L38.763 27.4858L39.0436 27.5992H39.5719L39.8913 27.4321L40.7271 27.2112L40.5689 26.9336L40.5152 26.5963L40.9629 26.7933L41.1301 26.6948L41.0465 26.3485L40.5062 26.5664L39.9093 26.4411L39.4496 25.5008H42.0674C41.9548 28.4125 40.7792 31.182 38.763 33.2856L38.4048 32.9244L38.56 32.4439L38.2795 31.3842L37.7093 32.2379ZM38.172 38.9153L38.4944 38.2228L38.369 37.9243L38.8436 37.5064V37.2557L38.4377 37.0019L38.772 36.3363L39.2735 35.6796L38.772 35.1393H38.3959L38.163 34.7602C38.363 34.5931 38.563 34.4229 38.76 34.2438L41.1809 36.6646C40.2686 37.5299 39.2588 38.2861 38.172 38.9183V38.9153ZM41.1928 35.7214L41.4614 35.4229L41.2077 34.0975L41.0346 34.0289L41.1421 33.805L40.5689 33.6259L40.4585 34.0975L40.4018 34.6945L40.2824 34.805L39.2376 33.7602C41.3806 31.531 42.628 28.5909 42.742 25.5008H46.1658C46.0527 29.4995 44.4444 33.3104 41.6585 36.1811L41.1928 35.7214ZM42.1361 36.6616C45.0486 33.6641 46.7287 29.6817 46.8434 25.5038H50.2642C50.1501 30.5895 48.1104 35.4424 44.5569 39.0825L42.1361 36.6616ZM21.5397 33.3453C21.2919 33.0886 21.0561 32.823 20.8292 32.5454L20.9337 31.6797L20.5725 30.8499L20.483 29.5514L20.077 28.7634L20.1606 28.2738L19.6711 27.3336L19.2442 27.1187L19.4173 26.6202L19.2412 26.2261L19.4173 25.7754H19.886L20.0501 25.5038H20.8501L20.9725 25.7396L20.8233 26.5664L20.7277 26.7067L21.0262 27.3604L20.8292 27.4679L20.6919 27.2948L20.6322 27.3604L20.7695 27.7485L21.0053 28.2022H21.1158L21.1934 27.7604L21.08 27.6112V27.3366L21.0441 26.7694L21.1934 25.7724L21.0322 25.5038H21.6053C21.7161 27.5353 22.5517 29.4596 23.9605 30.9275L21.5397 33.3453ZM19.2711 26.656L18.9487 27.1634H18.3935L18.3487 27.1306C18.2545 26.5928 18.1967 26.0493 18.1756 25.5038H19.2054L18.9576 26.3276L19.2711 26.656ZM20.3964 24.3068L20.4591 23.6262L20.865 23.3904L21.5904 23.5188L21.7008 23.6501C21.6353 24.0389 21.5984 24.432 21.5904 24.8262H20.7695L20.3964 24.3068ZM23.8799 26.8649L24.05 26.7784L24.4769 27.1157L24.2829 27.2739L24.7873 27.6082L24.7754 27.25L25.044 26.8052L25.3246 27.1037L25.6231 27.5157L25.0739 27.6291L25.3097 28.1007L25.6709 27.9097L25.6351 27.7604L25.9037 27.5783L26.0619 26.8321C26.2576 27.2698 26.5227 27.673 26.847 28.0261L24.4291 30.4439C23.2435 29.203 22.4988 27.6066 22.3098 25.9008L22.8053 26.4291H23.2709L23.8799 26.8649ZM21.3904 16.8772L23.8082 19.298C23.3016 19.8552 22.8701 20.4764 22.5247 21.1457H22.3575L22.0173 21.2502H21.8979L21.5367 21.5875L21.9934 21.492L22.4053 21.3875L22.3337 21.5457L21.9725 21.7666H21.7904L21.2591 22.1725L20.7456 22.1307L20.0024 23.5158L20.1486 23.7934L19.7457 24.2411L19.683 24.8381H18.1666C18.2142 21.876 19.3636 19.0378 21.3904 16.8772ZM18.2651 35.1304L19.0323 35.5811L19.1905 35.6885L18.6353 36.2438C18.3766 35.9751 18.1258 35.6975 17.883 35.4109L18.2651 35.1304ZM17.498 25.5038C17.498 25.8351 17.5398 26.1664 17.5756 26.4918L17.1577 26.5873L17.0711 27.0112L16.1995 28.1216L16.2204 29.6469L15.3249 29.9454H14.8354C14.3716 28.5075 14.1143 27.011 14.0712 25.5008L17.498 25.5038ZM14.119 29.9275L13.919 29.8887L13.7309 29.6768L12.7698 29.5932L13.0683 29.9962L12.1728 29.829L12.4056 29.6141L12.1877 29.3992L11.5459 29.6798L11.3161 30.1036L11.4056 31.0797L12.1459 32.8349L12.5011 33.3901L12.7041 33.4647L12.1459 32.4051L12.0235 31.8648L12.1489 31.7334L12.0713 31.4349L12.4086 31.4797L12.925 32.2618L13.0533 32.3125V31.7424L13.2623 31.8648L13.3071 32.1633L13.8503 32.3066L14.0772 32.1454L14.1548 32.1991V32.614L14.3936 32.9125L14.6921 32.9782L15.3249 34.0498L15.71 34.1572L15.8294 33.6558C16.4962 34.7576 17.2874 35.7792 18.1875 36.7005L15.7697 39.1183C12.176 35.4827 10.1031 30.6141 9.97284 25.5038H13.3966C13.4371 27.0042 13.6801 28.4922 14.119 29.9275ZM15.6115 11.0833L18.0293 13.5011C15.1048 16.5526 13.447 20.6 13.3906 24.8262H9.96985C10.0207 19.6946 12.034 14.7771 15.5965 11.0833H15.6115ZM40.3868 9.83559L40.1809 9.50127L39.7331 9.2774L39.3839 9.54306L39.8316 9.78186L40.3122 10.149L40.3868 9.83559ZM38.2944 19.492V19.7547L38.8914 19.5786L39.0735 19.2174L38.6645 18.6801L38.8824 18.3518L39.4346 18.7458L39.5361 18.6652L39.4257 18.5876L39.3003 18.3488L39.5272 18.2174L39.3063 17.9189L38.7869 18.1816L38.6138 18.507L38.5093 18.7905L38.7391 19.1756L38.6556 19.3547L38.2944 19.492ZM13.5488 34.8408L13.5936 34.6856L13.2951 34.017L12.931 33.8826L13.5488 34.8408ZM27.5425 21.9815C27.5425 22.5546 27.8917 22.9606 28.5275 23.3098C28.5275 23.3098 28.5275 23.2113 28.5275 23.0531L28.1275 22.6531L28.3394 22.2681L28.5126 22.2203C28.5126 21.5517 28.4857 20.8024 28.4827 20.695H28.4529C27.8619 21.0233 27.5425 21.4173 27.5425 21.9815Z" fill="#0093D5"/>
<path id="Vector_2" d="M31.3632 36.8109C32.4378 37.3541 33.4288 38.1064 33.8438 39.5302C34.0258 37.1721 32.7035 36.1512 31.3931 35.4617C31.3931 35.4647 31.3632 36.8139 31.3632 36.8109Z" fill="#0093D5"/>
<path id="Vector_3" d="M38.5063 12.8952C38.5063 10.755 36.9541 8.37893 33.1483 7.54015C32.7645 7.4707 32.3766 7.42583 31.9871 7.40582C31.9871 7.7282 31.9632 8.46848 31.9632 8.46848C31.9632 8.70131 31.9393 9.558 31.9334 9.74307C32.1792 9.76009 32.4235 9.794 32.6647 9.84456C34.8766 10.3729 35.6676 11.6355 35.6676 12.8952C35.6676 14.928 33.9303 15.6951 31.7871 16.2742L31.0797 16.4593C30.4319 16.6205 29.7663 16.7757 29.1066 16.9518C28.8708 17.0145 28.638 17.0831 28.4051 17.1518C26.038 17.8742 24.0023 19.0144 24.0023 21.9278C24.0023 24.8411 26.3246 25.9097 28.5902 26.6082C28.5763 25.7744 28.5603 24.9366 28.5424 24.0949C27.5425 23.6262 26.838 23.0083 26.838 21.9696C26.838 20.9308 27.4798 20.3398 28.4618 19.8801C28.6797 19.7816 28.9126 19.692 29.1603 19.6084C29.7245 19.4174 30.3543 19.2532 31.0259 19.092L31.7334 18.9219C34.9243 18.1756 38.5063 17.1757 38.5063 12.8952Z" fill="#0093D5"/>
<path id="Vector_4" d="M27.032 33.3334C27.032 34.5035 27.8977 35.1244 28.7603 35.6229C28.7603 35.4259 28.7245 33.614 28.7245 33.5841C28.7424 33.2229 29.0917 33.005 29.3752 32.8707C29.8225 32.6729 30.2799 32.4985 30.7453 32.3483C31.0021 32.2588 31.22 32.1722 31.4647 32.1006C33.196 31.5782 35.1989 30.9066 35.1989 28.8171C35.1989 26.7276 33.4826 25.8321 31.617 25.1963C31.617 25.8679 31.5841 26.85 31.5692 27.5276C32.3632 27.8261 32.8886 28.2171 32.8886 28.8171C32.8886 29.5723 32.0826 30.0111 31.5125 30.226C31.2737 30.3186 30.9155 30.438 30.811 30.4708C30.3513 30.6141 29.8558 30.7693 29.3931 30.9484C29.1539 31.0347 28.9197 31.1343 28.6917 31.2469C27.8678 31.6588 27.029 32.2648 27.032 33.3334Z" fill="#0093D5"/>
<path id="Vector_5" d="M28.2051 7.74014C27.4865 7.96614 26.7877 8.25066 26.1156 8.59086C25.3694 8.83862 24.3246 8.88936 23.2291 10.0654C22.8747 10.4728 22.5429 10.8993 22.2351 11.343C21.9068 11.8146 21.8919 12.5728 21.6381 12.9818C21.2919 13.5788 21.3755 13.9101 21.3755 13.9101V13.928C21.3113 14.2063 21.1731 14.4621 20.9755 14.6683C20.8115 14.8733 20.5971 15.0323 20.3533 15.1296C20.1095 15.2269 19.8446 15.2593 19.5845 15.2235C20.08 15.4713 20.7785 15.125 20.7785 15.125C20.6726 15.4482 20.5849 15.7771 20.5158 16.11C21.071 14.8534 21.5814 14.3937 21.7396 14.2653C21.9784 14.319 22.4739 14.2982 23.3933 13.7698C24.4321 13.1728 25.9932 12.2027 26.435 11.5878C26.9009 10.9571 27.5396 10.475 28.2738 10.1998C28.2409 9.25353 28.223 8.43564 28.2051 7.74014ZM23.8232 11.6654L23.2829 11.7818L23.9276 10.746L24.6798 10.7699L23.8232 11.6654Z" fill="#0093D5"/>
<path id="Vector_6" d="M30.3513 33.1871C30.2498 33.2229 29.9901 33.3334 29.826 33.3901C29.6618 33.4468 29.4319 33.5423 29.4319 33.602C29.4319 33.6617 29.5991 42.6794 29.5991 42.8793C29.5991 44.745 30.5483 44.7569 30.5483 42.8793C30.5483 42.745 30.7394 33.0587 30.7394 33.0587C30.7394 33.0587 30.5125 33.1334 30.3513 33.1871Z" fill="#0093D5"/>
<path id="Vector_7" d="M29.3663 30.1962C29.6648 30.0947 29.9633 30.0051 30.2319 29.9186L30.808 29.7395C30.808 29.1693 30.9811 21.283 31.011 19.8502C30.3902 19.9939 29.7774 20.1703 29.1752 20.3786C29.1961 21.4532 29.3513 29.3365 29.3663 30.1962Z" fill="#0093D5"/>
<path id="Vector_8" d="M30.1483 6.10352e-05C27.4798 6.10352e-05 28.6141 3.95815 28.826 5.24766C28.826 5.31035 29.0409 14.2026 29.0827 16.2294C29.4887 16.122 29.8916 16.0235 30.2767 15.9309L31.0826 15.7279C31.1214 13.7668 31.3185 5.2805 31.3244 5.23573C31.5005 3.85368 32.8975 6.10352e-05 30.1483 6.10352e-05Z" fill="#0093D5"/>
<path id="Vector_9" d="M73.7739 12.6176H73.7291L71.4695 24.9575H68.3711L65.4727 9.89825H67.9383L69.9531 21.5069H69.9919L72.1501 9.89825H75.3559L77.4932 21.5069H77.535L79.6245 9.89825H82.0125L79.0513 24.9575H75.9111L73.7739 12.6176Z" fill="#0093D5"/>
<path id="Vector_10" d="M86.3944 13.6743C88.5496 13.6743 91.0391 14.8683 91.0391 19.3905C91.0391 24.0531 88.5496 25.1307 86.3944 25.1307C84.2393 25.1307 81.7289 24.0531 81.7289 19.4025C81.7289 14.8623 84.2363 13.6743 86.3944 13.6743ZM86.3944 23.2262C88.0362 23.2262 88.4063 21.2412 88.4063 19.3846C88.4063 17.5279 88.0362 15.5668 86.3944 15.5668C84.7527 15.5668 84.3587 17.5309 84.3587 19.3846C84.3587 21.2382 84.7497 23.2322 86.3944 23.2322V23.2262Z" fill="#0093D5"/>
<path id="Vector_11" d="M92.6181 15.6802C92.627 15.0682 92.6001 14.4562 92.5375 13.8474H94.8389C94.8598 14.5161 94.9225 15.2056 94.9225 15.8742H94.9613C95.2598 15.0116 96.0717 13.6743 97.6478 13.6743C97.7938 13.6831 97.9386 13.7051 98.0806 13.74V16.2414C97.8473 16.1708 97.605 16.1346 97.3613 16.1339C96.3135 16.1339 95.1613 16.8025 95.1613 18.8741V24.9575H92.6121L92.6181 15.6802Z" fill="#0093D5"/>
<path id="Vector_12" d="M99.6985 8.77594H102.248V24.9575H99.6985V8.77594Z" fill="#0093D5"/>
<path id="Vector_13" d="M112.874 8.77594V23.0591C112.862 23.693 112.889 24.327 112.955 24.9575H110.567C110.507 24.3845 110.479 23.8084 110.483 23.2322H110.421C110.012 24.1814 109.25 25.1307 107.606 25.1307C104.976 25.1307 103.886 22.4979 103.886 19.4144C103.886 15.7877 105.263 13.6743 107.546 13.6743C108.128 13.6537 108.702 13.8124 109.191 14.129C109.679 14.4457 110.058 14.9049 110.277 15.4444H110.319V8.77594H112.874ZM108.31 23.1695C109.803 23.1695 110.325 21.4621 110.325 19.3697C110.325 17.2115 109.749 15.6384 108.352 15.6384C106.955 15.6384 106.442 17.0832 106.442 19.307C106.442 21.8741 106.833 23.1695 108.31 23.1695Z" fill="#0093D5"/>
<path id="Vector_14" d="M121.268 9.89825H123.901V16.0264H128.151V9.89825H130.784V24.9575H128.151V18.3129H123.901V24.9575H121.268V9.89825Z" fill="#0093D5"/>
<path id="Vector_15" d="M140.545 24.4202C139.554 24.8817 138.474 25.1241 137.381 25.1307C133.969 25.1307 132.489 22.5636 132.489 19.5637C132.489 16.2414 134.154 13.6743 136.847 13.6743C139.127 13.6743 141.079 15.0772 141.079 19.6084V20.1248H134.954C134.954 22.0233 135.674 23.1695 137.641 23.1695C139.202 23.1695 139.942 22.671 140.417 22.3039L140.545 24.4202ZM138.614 18.4503C138.614 16.4861 137.996 15.4921 136.847 15.4921C135.509 15.4921 134.954 16.9846 134.954 18.4503H138.614Z" fill="#0093D5"/>
<path id="Vector_16" d="M143.36 14.4951C144.392 13.9497 145.542 13.6677 146.709 13.6743C149.993 13.6743 150.757 15.3578 150.757 18.1518V22.9844C150.76 23.6408 150.809 24.2961 150.903 24.9456H148.599C148.486 24.4564 148.438 23.9547 148.455 23.4531H148.416C147.778 24.3486 146.975 25.1336 145.455 25.1336C143.811 25.1336 142.291 23.9396 142.291 21.877C142.291 18.8562 144.634 18.101 147.861 18.101H148.375V17.6891C148.375 16.5876 147.861 15.5727 146.402 15.5727C145.342 15.5984 144.321 15.9789 143.503 16.6533L143.36 14.4951ZM148.375 19.5219H148.148C145.969 19.5219 144.676 19.9965 144.676 21.6114C144.676 22.6262 145.312 23.3158 146.297 23.3158C147.819 23.3158 148.387 22.1218 148.387 20.1427L148.375 19.5219Z" fill="#0093D5"/>
<path id="Vector_17" d="M153.264 8.77594H155.816V24.9575H153.267L153.264 8.77594Z" fill="#0093D5"/>
<path id="Vector_18" d="M158.998 11.5609L161.547 10.746V13.8474H163.664V15.8205H161.547V21.5815C161.547 22.7755 161.956 23.1128 162.697 23.1128C163.034 23.1186 163.368 23.0363 163.664 22.874V24.7754C163.131 25.0295 162.546 25.1552 161.956 25.1426C160.067 25.1426 158.998 24.2471 158.998 21.9069V15.8205H157.309V13.8474H158.992L158.998 11.5609Z" fill="#0093D5"/>
<path id="Vector_19" d="M164.977 8.77594H167.526V15.2713H167.589C168.04 14.5788 168.637 13.6743 170.219 13.6743C172.607 13.6743 173.341 15.5519 173.341 17.7966V24.9605H170.792V18.2921C170.792 16.5876 170.383 15.8742 169.335 15.8742C167.998 15.8742 167.526 17.0682 167.526 18.4861V24.9575H164.977V8.77594Z" fill="#0093D5"/>
<path id="Vector_20" d="M71.0814 28.9544C74.0664 28.9544 76.7947 31.2857 76.7947 36.7154C76.7947 42.1451 74.0634 44.4585 71.0814 44.4585C68.0994 44.4585 65.3712 42.1302 65.3712 36.7154C65.3712 31.3006 68.1024 28.9544 71.0814 28.9544ZM71.0814 42.3331C72.7471 42.3331 74.0814 40.8406 74.0814 36.7035C74.0814 32.5663 72.7471 31.0708 71.0814 31.0708C69.4158 31.0708 68.0965 32.5633 68.0965 36.7035C68.0965 40.8436 69.4188 42.3451 71.0814 42.3451V42.3331Z" fill="#0093D5"/>
<path id="Vector_21" d="M78.5051 34.9662C78.5125 34.3532 78.4856 33.7403 78.4245 33.1304H80.7259C80.7468 33.802 80.8065 34.4916 80.8065 35.1602H80.8483C81.1468 34.2975 81.9587 32.9603 83.5348 32.9603C83.6796 32.9694 83.8233 32.9904 83.9646 33.023V35.5214C83.7324 35.4505 83.491 35.4143 83.2483 35.4139C82.1975 35.4139 81.0483 36.0826 81.0483 38.1541V44.2375H78.5051V34.9662Z" fill="#0093D5"/>
<path id="Vector_22" d="M85.5586 45.9688C86.5021 46.5477 87.578 46.8755 88.6839 46.921C91.0719 46.921 91.4778 45.1718 91.4778 43.4226V42.366H91.4361C91.0271 43.2286 90.3077 44.2435 88.6421 44.2435C87.1496 44.2435 84.9437 43.2077 84.9437 38.7213C84.9437 35.6557 85.9914 32.9603 88.7645 32.9603C90.3077 32.9603 91.0271 33.8886 91.5614 34.8587H91.639C91.639 34.2617 91.7017 33.7155 91.7226 33.1304H94.027C93.9852 33.7274 93.9434 34.2975 93.9434 34.8796V43.0794C93.9434 46.5539 92.9375 49.0493 89.054 49.0493C87.8092 49.0411 86.5762 48.8064 85.4153 48.3568L85.5586 45.9688ZM89.5227 42.2794C91.1256 42.2794 91.7614 41.0854 91.7614 38.5482C91.7614 36.2169 90.9197 34.9662 89.7078 34.9871C88.3705 35.011 87.8571 36.3035 87.8571 38.5691C87.8571 41.1929 88.6541 42.2794 89.5227 42.2794Z" fill="#0093D5"/>
<path id="Vector_23" d="M96.7135 33.7782C97.7471 33.2354 98.8982 32.9545 100.066 32.9603C103.349 32.9603 104.113 34.6438 104.113 37.4378V42.2914C104.116 42.9486 104.163 43.6049 104.257 44.2555H101.955C101.842 43.7604 101.793 43.2526 101.812 42.7451H101.77C101.134 43.6406 100.331 44.4286 98.812 44.4286C97.1672 44.4286 95.6479 43.2346 95.6479 41.172C95.6479 38.1512 97.9881 37.396 101.215 37.396H101.728V36.9841C101.728 35.8856 101.215 34.8707 99.7552 34.8707C98.6969 34.8969 97.6777 35.2762 96.8598 35.9483L96.7135 33.7782ZM101.713 38.8049H101.489C99.3104 38.8049 98.015 39.2795 98.015 40.8944C98.015 41.9063 98.6537 42.5988 99.6388 42.5988C101.158 42.5988 101.713 41.4048 101.713 39.4258V38.8049Z" fill="#0093D5"/>
<path id="Vector_24" d="M106.665 34.9662C106.673 34.3532 106.646 33.7403 106.585 33.1304H108.973C108.991 33.6916 109.053 34.2737 109.053 34.8378H109.095C109.465 34.1662 110.185 32.9603 111.91 32.9603C114.313 32.9603 115.032 34.8378 115.032 37.0795V44.2435H112.486V37.578C112.486 35.8736 112.074 35.1602 111.027 35.1602C109.689 35.1602 109.218 36.3542 109.218 37.7721V44.2435H106.668L106.665 34.9662Z" fill="#0093D5"/>
<path id="Vector_25" d="M117.328 28.4052H119.958V31.0439H117.328V28.4052ZM117.367 33.1304H119.916V44.2435H117.367V33.1304Z" fill="#0093D5"/>
<path id="Vector_26" d="M122.289 41.9361L126.808 35.1602H122.432V33.1334H129.357V35.4228L124.919 42.2197H129.501V44.2465H122.289V41.9361Z" fill="#0093D5"/>
<path id="Vector_27" d="M131.912 33.7782C132.946 33.235 134.097 32.9542 135.265 32.9603C138.548 32.9603 139.312 34.6438 139.312 37.4378V42.2914C139.314 42.9486 139.362 43.6049 139.456 44.2555H137.154C137.039 43.7607 136.991 43.2527 137.011 42.7451H136.969C136.33 43.6406 135.53 44.4286 134.011 44.4286C132.366 44.4286 130.844 43.2346 130.844 41.172C130.844 38.1512 133.187 37.396 136.414 37.396H136.927V36.9841C136.927 35.8856 136.414 34.8707 134.954 34.8707C133.896 34.8969 132.877 35.2762 132.059 35.9483L131.912 33.7782ZM136.927 38.8049H136.712C134.533 38.8049 133.241 39.2795 133.241 40.8944C133.241 41.9063 133.877 42.5988 134.865 42.5988C136.384 42.5988 136.954 41.4048 136.954 39.4258L136.927 38.8049Z" fill="#0093D5"/>
<path id="Vector_28" d="M142.241 30.8439L144.79 30.026V33.1334H146.906V35.0975H144.79V40.8585C144.79 42.0525 145.202 42.3898 145.942 42.3898C146.278 42.3964 146.611 42.3151 146.906 42.154V44.0524C146.374 44.3064 145.791 44.4322 145.202 44.4196C143.309 44.4196 142.241 43.5241 142.241 41.1839V35.0945H140.557V33.1334H142.241V30.8439Z" fill="#0093D5"/>
<path id="Vector_29" d="M148.652 28.4052H151.282V31.0439H148.652V28.4052ZM148.981 33.1334H151.53V44.2465H148.981V33.1334Z" fill="#0093D5"/>
<path id="Vector_30" d="M158.147 32.9603C160.306 32.9603 162.789 34.1543 162.789 38.6765C162.789 43.3391 160.306 44.4166 158.147 44.4166C155.989 44.4166 153.482 43.3391 153.482 38.6765C153.482 34.1453 155.989 32.9603 158.147 32.9603ZM158.147 42.5122C159.789 42.5122 160.159 40.5272 160.159 38.6705C160.159 36.8139 159.789 34.8527 158.147 34.8527C156.506 34.8527 156.115 36.8199 156.115 38.6765C156.115 40.5332 156.503 42.5182 158.147 42.5182V42.5122Z" fill="#0093D5"/>
<path id="Vector_31" d="M165.01 34.9662C165.018 34.3531 164.99 33.7402 164.926 33.1304H167.314C167.335 33.6916 167.398 34.2737 167.398 34.8378H167.44C167.807 34.1662 168.526 32.9603 170.252 32.9603C172.658 32.9603 173.377 34.8378 173.377 37.0795V44.2435H170.831V37.578C170.831 35.8736 170.419 35.1602 169.368 35.1602C168.034 35.1602 167.577 36.3542 167.577 37.7721V44.2435H165.01V34.9662Z" fill="#0093D5"/>
</g>
</g>
</g>
<defs>
<clipPath id="clip0_42_925">
<rect width="173.374" height="53.1208" fill="white"/>
</clipPath>
</defs>
</svg>
